<mxfile host="app.diagrams.net" modified="2023-06-24T14:19:12.271Z" agent="Mozilla/5.0 (Windows NT 10.0; Win64; x64) AppleWebKit/537.36 (KHTML, like Gecko) Chrome/114.0.0.0 Safari/537.36 Edg/114.0.1823.58" etag="PD8hsZzCmbV9P8le5YUv" version="21.2.9" type="device">
  <diagram name="Página-1" id="Sx63nQZF6_k1oNd8qX7L">
    <mxGraphModel dx="832" dy="484" grid="1" gridSize="10" guides="1" tooltips="1" connect="1" arrows="1" fold="1" page="1" pageScale="1" pageWidth="827" pageHeight="1169" math="0" shadow="0">
      <root>
        <mxCell id="0" />
        <mxCell id="1" parent="0" />
        <mxCell id="Kq_vgZtTCY-l8nZOrk-y-49" value="" style="rounded=0;whiteSpace=wrap;html=1;" vertex="1" parent="1">
          <mxGeometry x="190" y="560" width="510" height="520" as="geometry" />
        </mxCell>
        <mxCell id="Kq_vgZtTCY-l8nZOrk-y-16" value="" style="whiteSpace=wrap;html=1;aspect=fixed;" vertex="1" parent="1">
          <mxGeometry x="190" y="30" width="510" height="510" as="geometry" />
        </mxCell>
        <mxCell id="Kq_vgZtTCY-l8nZOrk-y-1" value="Actor" style="shape=umlActor;verticalLabelPosition=bottom;verticalAlign=top;html=1;outlineConnect=0;" vertex="1" parent="1">
          <mxGeometry x="240" y="70" width="30" height="60" as="geometry" />
        </mxCell>
        <mxCell id="Kq_vgZtTCY-l8nZOrk-y-2" value="Actor" style="shape=umlActor;verticalLabelPosition=bottom;verticalAlign=top;html=1;outlineConnect=0;" vertex="1" parent="1">
          <mxGeometry x="620" y="70" width="30" height="60" as="geometry" />
        </mxCell>
        <mxCell id="Kq_vgZtTCY-l8nZOrk-y-3" value="" style="rounded=0;whiteSpace=wrap;html=1;" vertex="1" parent="1">
          <mxGeometry x="270" y="290" width="360" height="150" as="geometry" />
        </mxCell>
        <mxCell id="Kq_vgZtTCY-l8nZOrk-y-6" value="" style="endArrow=classic;html=1;rounded=0;entryX=0.175;entryY=-0.067;entryDx=0;entryDy=0;entryPerimeter=0;" edge="1" parent="1" target="Kq_vgZtTCY-l8nZOrk-y-3">
          <mxGeometry width="50" height="50" relative="1" as="geometry">
            <mxPoint x="270" y="160" as="sourcePoint" />
            <mxPoint x="440" y="230" as="targetPoint" />
          </mxGeometry>
        </mxCell>
        <mxCell id="Kq_vgZtTCY-l8nZOrk-y-7" value="Empresa Guanabara (Com Ids diferentes para ter acesso a empresas diferentes)&lt;br&gt;" style="text;html=1;strokeColor=none;fillColor=none;align=center;verticalAlign=middle;whiteSpace=wrap;rounded=0;" vertex="1" parent="1">
          <mxGeometry x="350" y="310" width="200" height="30" as="geometry" />
        </mxCell>
        <mxCell id="Kq_vgZtTCY-l8nZOrk-y-8" value="Informação critica 1" style="text;html=1;strokeColor=none;fillColor=none;align=center;verticalAlign=middle;whiteSpace=wrap;rounded=0;" vertex="1" parent="1">
          <mxGeometry x="280" y="370" width="60" height="30" as="geometry" />
        </mxCell>
        <mxCell id="Kq_vgZtTCY-l8nZOrk-y-9" value="Actor" style="shape=umlActor;verticalLabelPosition=bottom;verticalAlign=top;html=1;outlineConnect=0;" vertex="1" parent="1">
          <mxGeometry x="430" y="70" width="30" height="60" as="geometry" />
        </mxCell>
        <mxCell id="Kq_vgZtTCY-l8nZOrk-y-10" value="Informação critica 2" style="text;html=1;strokeColor=none;fillColor=none;align=center;verticalAlign=middle;whiteSpace=wrap;rounded=0;" vertex="1" parent="1">
          <mxGeometry x="420" y="370" width="60" height="30" as="geometry" />
        </mxCell>
        <mxCell id="Kq_vgZtTCY-l8nZOrk-y-11" value="Informação critica 3&lt;br&gt;" style="text;html=1;strokeColor=none;fillColor=none;align=center;verticalAlign=middle;whiteSpace=wrap;rounded=0;" vertex="1" parent="1">
          <mxGeometry x="540" y="370" width="60" height="30" as="geometry" />
        </mxCell>
        <mxCell id="Kq_vgZtTCY-l8nZOrk-y-12" value="" style="endArrow=classic;html=1;rounded=0;" edge="1" parent="1">
          <mxGeometry width="50" height="50" relative="1" as="geometry">
            <mxPoint x="445" y="160" as="sourcePoint" />
            <mxPoint x="445" y="280" as="targetPoint" />
          </mxGeometry>
        </mxCell>
        <mxCell id="Kq_vgZtTCY-l8nZOrk-y-13" value="" style="endArrow=classic;html=1;rounded=0;" edge="1" parent="1">
          <mxGeometry width="50" height="50" relative="1" as="geometry">
            <mxPoint x="620" y="160" as="sourcePoint" />
            <mxPoint x="560" y="280" as="targetPoint" />
          </mxGeometry>
        </mxCell>
        <mxCell id="Kq_vgZtTCY-l8nZOrk-y-19" value="Usuários" style="swimlane;fontStyle=0;childLayout=stackLayout;horizontal=1;startSize=26;fillColor=none;horizontalStack=0;resizeParent=1;resizeParentMax=0;resizeLast=0;collapsible=1;marginBottom=0;html=1;" vertex="1" parent="1">
          <mxGeometry x="510" y="710" width="140" height="104" as="geometry" />
        </mxCell>
        <mxCell id="Kq_vgZtTCY-l8nZOrk-y-20" value="User 1" style="text;strokeColor=none;fillColor=none;align=left;verticalAlign=top;spacingLeft=4;spacingRight=4;overflow=hidden;rotatable=0;points=[[0,0.5],[1,0.5]];portConstraint=eastwest;whiteSpace=wrap;html=1;" vertex="1" parent="Kq_vgZtTCY-l8nZOrk-y-19">
          <mxGeometry y="26" width="140" height="26" as="geometry" />
        </mxCell>
        <mxCell id="Kq_vgZtTCY-l8nZOrk-y-21" value="User 2" style="text;strokeColor=none;fillColor=none;align=left;verticalAlign=top;spacingLeft=4;spacingRight=4;overflow=hidden;rotatable=0;points=[[0,0.5],[1,0.5]];portConstraint=eastwest;whiteSpace=wrap;html=1;" vertex="1" parent="Kq_vgZtTCY-l8nZOrk-y-19">
          <mxGeometry y="52" width="140" height="26" as="geometry" />
        </mxCell>
        <mxCell id="Kq_vgZtTCY-l8nZOrk-y-22" value="User 3&lt;br&gt;" style="text;strokeColor=none;fillColor=none;align=left;verticalAlign=top;spacingLeft=4;spacingRight=4;overflow=hidden;rotatable=0;points=[[0,0.5],[1,0.5]];portConstraint=eastwest;whiteSpace=wrap;html=1;" vertex="1" parent="Kq_vgZtTCY-l8nZOrk-y-19">
          <mxGeometry y="78" width="140" height="26" as="geometry" />
        </mxCell>
        <mxCell id="Kq_vgZtTCY-l8nZOrk-y-23" value="Nutricionistas" style="swimlane;fontStyle=0;childLayout=stackLayout;horizontal=1;startSize=26;fillColor=none;horizontalStack=0;resizeParent=1;resizeParentMax=0;resizeLast=0;collapsible=1;marginBottom=0;html=1;" vertex="1" parent="1">
          <mxGeometry x="250" y="710" width="140" height="104" as="geometry" />
        </mxCell>
        <mxCell id="Kq_vgZtTCY-l8nZOrk-y-24" value="Nutri 1&lt;br&gt;" style="text;strokeColor=none;fillColor=none;align=left;verticalAlign=top;spacingLeft=4;spacingRight=4;overflow=hidden;rotatable=0;points=[[0,0.5],[1,0.5]];portConstraint=eastwest;whiteSpace=wrap;html=1;" vertex="1" parent="Kq_vgZtTCY-l8nZOrk-y-23">
          <mxGeometry y="26" width="140" height="26" as="geometry" />
        </mxCell>
        <mxCell id="Kq_vgZtTCY-l8nZOrk-y-25" value="Nutri 2&lt;br&gt;" style="text;strokeColor=none;fillColor=none;align=left;verticalAlign=top;spacingLeft=4;spacingRight=4;overflow=hidden;rotatable=0;points=[[0,0.5],[1,0.5]];portConstraint=eastwest;whiteSpace=wrap;html=1;" vertex="1" parent="Kq_vgZtTCY-l8nZOrk-y-23">
          <mxGeometry y="52" width="140" height="26" as="geometry" />
        </mxCell>
        <mxCell id="Kq_vgZtTCY-l8nZOrk-y-26" value="Nutri 3&lt;br&gt;" style="text;strokeColor=none;fillColor=none;align=left;verticalAlign=top;spacingLeft=4;spacingRight=4;overflow=hidden;rotatable=0;points=[[0,0.5],[1,0.5]];portConstraint=eastwest;whiteSpace=wrap;html=1;" vertex="1" parent="Kq_vgZtTCY-l8nZOrk-y-23">
          <mxGeometry y="78" width="140" height="26" as="geometry" />
        </mxCell>
        <mxCell id="Kq_vgZtTCY-l8nZOrk-y-28" value="1 ... 1" style="text;html=1;strokeColor=none;fillColor=none;align=center;verticalAlign=middle;whiteSpace=wrap;rounded=0;fontStyle=1;strokeWidth=4;" vertex="1" parent="1">
          <mxGeometry x="420" y="740" width="60" height="30" as="geometry" />
        </mxCell>
        <mxCell id="Kq_vgZtTCY-l8nZOrk-y-29" value="Empresa" style="swimlane;fontStyle=0;childLayout=stackLayout;horizontal=1;startSize=26;fillColor=none;horizontalStack=0;resizeParent=1;resizeParentMax=0;resizeLast=0;collapsible=1;marginBottom=0;html=1;" vertex="1" parent="1">
          <mxGeometry x="250" y="935" width="140" height="104" as="geometry" />
        </mxCell>
        <mxCell id="Kq_vgZtTCY-l8nZOrk-y-30" value="Empresa 1" style="text;strokeColor=none;fillColor=none;align=left;verticalAlign=top;spacingLeft=4;spacingRight=4;overflow=hidden;rotatable=0;points=[[0,0.5],[1,0.5]];portConstraint=eastwest;whiteSpace=wrap;html=1;" vertex="1" parent="Kq_vgZtTCY-l8nZOrk-y-29">
          <mxGeometry y="26" width="140" height="26" as="geometry" />
        </mxCell>
        <mxCell id="Kq_vgZtTCY-l8nZOrk-y-31" value="Empresa&amp;nbsp;2" style="text;strokeColor=none;fillColor=none;align=left;verticalAlign=top;spacingLeft=4;spacingRight=4;overflow=hidden;rotatable=0;points=[[0,0.5],[1,0.5]];portConstraint=eastwest;whiteSpace=wrap;html=1;" vertex="1" parent="Kq_vgZtTCY-l8nZOrk-y-29">
          <mxGeometry y="52" width="140" height="26" as="geometry" />
        </mxCell>
        <mxCell id="Kq_vgZtTCY-l8nZOrk-y-32" value="Empresa 3" style="text;strokeColor=none;fillColor=none;align=left;verticalAlign=top;spacingLeft=4;spacingRight=4;overflow=hidden;rotatable=0;points=[[0,0.5],[1,0.5]];portConstraint=eastwest;whiteSpace=wrap;html=1;" vertex="1" parent="Kq_vgZtTCY-l8nZOrk-y-29">
          <mxGeometry y="78" width="140" height="26" as="geometry" />
        </mxCell>
        <mxCell id="Kq_vgZtTCY-l8nZOrk-y-34" value="1 ... n" style="text;html=1;strokeColor=none;fillColor=none;align=center;verticalAlign=middle;whiteSpace=wrap;rounded=0;fontStyle=1;strokeWidth=4;rotation=-90;" vertex="1" parent="1">
          <mxGeometry x="280" y="855" width="60" height="30" as="geometry" />
        </mxCell>
        <mxCell id="Kq_vgZtTCY-l8nZOrk-y-35" value="Dados de Registro" style="swimlane;fontStyle=0;childLayout=stackLayout;horizontal=1;startSize=26;fillColor=none;horizontalStack=0;resizeParent=1;resizeParentMax=0;resizeLast=0;collapsible=1;marginBottom=0;html=1;" vertex="1" parent="1">
          <mxGeometry x="510" y="855" width="140" height="104" as="geometry" />
        </mxCell>
        <mxCell id="Kq_vgZtTCY-l8nZOrk-y-36" value="Registro 1" style="text;strokeColor=none;fillColor=none;align=left;verticalAlign=top;spacingLeft=4;spacingRight=4;overflow=hidden;rotatable=0;points=[[0,0.5],[1,0.5]];portConstraint=eastwest;whiteSpace=wrap;html=1;" vertex="1" parent="Kq_vgZtTCY-l8nZOrk-y-35">
          <mxGeometry y="26" width="140" height="26" as="geometry" />
        </mxCell>
        <mxCell id="Kq_vgZtTCY-l8nZOrk-y-37" value="Registra 2" style="text;strokeColor=none;fillColor=none;align=left;verticalAlign=top;spacingLeft=4;spacingRight=4;overflow=hidden;rotatable=0;points=[[0,0.5],[1,0.5]];portConstraint=eastwest;whiteSpace=wrap;html=1;" vertex="1" parent="Kq_vgZtTCY-l8nZOrk-y-35">
          <mxGeometry y="52" width="140" height="26" as="geometry" />
        </mxCell>
        <mxCell id="Kq_vgZtTCY-l8nZOrk-y-38" value="Registro 3&lt;br&gt;" style="text;strokeColor=none;fillColor=none;align=left;verticalAlign=top;spacingLeft=4;spacingRight=4;overflow=hidden;rotatable=0;points=[[0,0.5],[1,0.5]];portConstraint=eastwest;whiteSpace=wrap;html=1;" vertex="1" parent="Kq_vgZtTCY-l8nZOrk-y-35">
          <mxGeometry y="78" width="140" height="26" as="geometry" />
        </mxCell>
        <mxCell id="Kq_vgZtTCY-l8nZOrk-y-44" value="" style="endArrow=classic;html=1;rounded=0;entryX=0.493;entryY=1.231;entryDx=0;entryDy=0;entryPerimeter=0;exitX=0.5;exitY=0;exitDx=0;exitDy=0;" edge="1" parent="1" source="Kq_vgZtTCY-l8nZOrk-y-29" target="Kq_vgZtTCY-l8nZOrk-y-26">
          <mxGeometry width="50" height="50" relative="1" as="geometry">
            <mxPoint x="320" y="825" as="sourcePoint" />
            <mxPoint x="320" y="915" as="targetPoint" />
          </mxGeometry>
        </mxCell>
        <mxCell id="Kq_vgZtTCY-l8nZOrk-y-46" value="n ... n&lt;br&gt;" style="text;html=1;strokeColor=none;fillColor=none;align=center;verticalAlign=middle;whiteSpace=wrap;rounded=0;fontStyle=1;strokeWidth=4;rotation=-30;" vertex="1" parent="1">
          <mxGeometry x="410" y="935" width="60" height="30" as="geometry" />
        </mxCell>
        <mxCell id="Kq_vgZtTCY-l8nZOrk-y-50" value="" style="endArrow=classic;html=1;rounded=0;" edge="1" parent="1">
          <mxGeometry width="50" height="50" relative="1" as="geometry">
            <mxPoint x="400" y="820" as="sourcePoint" />
            <mxPoint x="500" y="860" as="targetPoint" />
          </mxGeometry>
        </mxCell>
        <mxCell id="Kq_vgZtTCY-l8nZOrk-y-51" value="1 ... n" style="text;html=1;strokeColor=none;fillColor=none;align=center;verticalAlign=middle;whiteSpace=wrap;rounded=0;fontStyle=1;strokeWidth=4;rotation=15;" vertex="1" parent="1">
          <mxGeometry x="430" y="805" width="60" height="30" as="geometry" />
        </mxCell>
        <mxCell id="Kq_vgZtTCY-l8nZOrk-y-53" value="" style="endArrow=classic;startArrow=classic;html=1;rounded=0;" edge="1" parent="1">
          <mxGeometry width="50" height="50" relative="1" as="geometry">
            <mxPoint x="400" y="765" as="sourcePoint" />
            <mxPoint x="500" y="765" as="targetPoint" />
          </mxGeometry>
        </mxCell>
        <mxCell id="Kq_vgZtTCY-l8nZOrk-y-55" value="" style="endArrow=classic;startArrow=classic;html=1;rounded=0;" edge="1" parent="1">
          <mxGeometry width="50" height="50" relative="1" as="geometry">
            <mxPoint x="400" y="995" as="sourcePoint" />
            <mxPoint x="500" y="935" as="targetPoint" />
          </mxGeometry>
        </mxCell>
        <mxCell id="Kq_vgZtTCY-l8nZOrk-y-56" value="Ideia do YAN&lt;br&gt;" style="text;html=1;strokeColor=none;fillColor=none;align=center;verticalAlign=middle;whiteSpace=wrap;rounded=0;" vertex="1" parent="1">
          <mxGeometry x="390" y="585" width="60" height="30" as="geometry" />
        </mxCell>
      </root>
    </mxGraphModel>
  </diagram>
</mxfile>
